# xmcd CD database file
#
# Track frame offsets:
#	150
#	6916
#	68405
#	92237
#	114286
#	153742
#	182778
#
# Disc length: 2796 seconds
#
# Revision: 0
# Processed by: cddbd v1.5.2PL0 Copyright (c) Steve Scherf et al.
# Submitted via: CDex 1.70beta2
#
DISCID=510aea07
DTITLE=David Murray - THE CLARINET SUMMIT - SOUTHERN BELLS
DYEAR=1987
DGENRE=Jazz
TTITLE0=DON'T GET AROUND MUCH ANYMORE
TTITLE1=FLUFFY'S BLUES
TTITLE2=I WANT TO TALK ABOUT YOU
TTITLE3=BEAT BOX
TTITLE4=SOUTHERN BELLS
TTITLE5=PERDIDO
TTITLE6=THE CLARINET SUMMIT - MBIZO
EXTD=YEAR: 1987
EXTT0=
EXTT1=
EXTT2=
EXTT3=
EXTT4=
EXTT5=
EXTT6=
PLAYORDER=
